<mxfile host="app.diagrams.net" modified="2024-02-28T18:23:09.162Z" agent="Mozilla/5.0 (Macintosh; Intel Mac OS X 10_15_7) AppleWebKit/537.36 (KHTML, like Gecko) Chrome/121.0.0.0 Safari/537.36" version="23.1.8" etag="-ntgMSOHy5u38hPYTtDb" type="github">
  <diagram name="‫עמוד-1‬" id="gg90VGGGXuReyo32pC2P">
    <mxGraphModel>
      <root>
        <mxCell id="0" />
        <mxCell id="1" parent="0" />
      </root>
    </mxGraphModel>
  </diagram>
</mxfile>
